<svg xmlns="http://www.w3.org/2000/svg" viewBox="0 0 448 512" fill="#E1306C">
  <path d="M224.1 141c-63.6 0-114.9 51.3-114.9 114.9S160.5 370.9 224.1 370.9 339 319.6 339 255.9 287.7 141 224.1 141zm0 186.6c-39.6 0-71.7-32.1-71.7-71.7s32.1-71.7 71.7-71.7 71.7 32.1 71.7 71.7-32.1 71.7-71.7 71.7zm146.4-194.3c0 14.9-12 27-27 27s-27-12.1-27-27 12-27 27-27 27 12.1 27 27zm76.1 27.2c-1.7-35.7-9.9-67.3-36.2-93.6S379.8 0 344.1 0H103.9C68.2 0 36.6 8.2 10.3 34.5S0 108.2 0 143.9v200.2c0 35.7 8.2 67.3 34.5 93.6s57.9 36.2 93.6 36.2h200.2c35.7 0 67.3-8.2 93.6-34.5s36.2-57.9 36.2-93.6V143.9c0-1.3 0-2.6-.1-3.9zM398.8 388c-5.4 13.6-15.9 24.2-29.5 29.5-20.4 8.1-68.9 6.3-145.3 6.3s-124.9 1.8-145.3-6.3c-13.6-5.4-24.2-15.9-29.5-29.5-8.1-20.4-6.3-68.9-6.3-145.3s-1.8-124.9 6.3-145.3c5.4-13.6 15.9-24.2 29.5-29.5 20.4-8.1 68.9-6.3 145.3-6.3s124.9-1.8 145.3 6.3c13.6 5.4 24.2 15.9 29.5 29.5 8.1 20.4 6.3 68.9 6.3 145.3s1.8 124.9-6.3 145.3z"/>
</svg>
