<svg xmlns="http://www.w3.org/2000/svg" version="1.1" xmlns:xlink="http://www.w3.org/1999/xlink" xmlns:svgjs="http://svgjs.dev/svgjs" width="100%" height="100%" viewBox="0 0 1000 600"><rect width="1000" height="600" x="0" y="0" fill="pink"/><g><rect width="333.3333333333333" height="333.3333333333333" rx="13.333333333333334" ry="13.333333333333334" y="240.02631676689447" fill="#7D141" transform="matrix(0.57391014066589,0,0,0.57391014066589,0,66.59475518838507)" x="217.8040313720703"/><path d="M375.99678527026583 331.69298208878644L375.99678527026583 331.69298208878644Q413.9234235080343 331.69298208878644 432.3424115117915 350.67101285943085Q450.79082281906915 369.61962032655487 450.79082281906915 405.01585446157077L450.79082281906915 405.01585446157077Q450.79082281906915 428.08372442154786 441.7872919418332 445.35520358801034Q432.78376106459723 462.62668275447277 415.6005518086959 472.15983309507556Q398.446765856315 481.69298343567834 374.0842705414412 481.69298343567834L374.0842705414412 481.69298343567834Q370.9065537612403 481.69298343567834 365.610359127572 481.4870203110357Q360.31416449390383 481.281057186393 354.69431352151145 481.1633639723115Q349.10388585263945 481.04567075823 344.42558059289917 481.04567075823L344.42558059289917 481.04567075823Q337.0109081057637 481.04567075823 329.8021987432708 481.1633639723115Q322.6229126842984 481.281057186393 318.1505705492008 481.69298343567834L318.1505705492008 481.69298343567834L318.1505705492008 477.4560277287438Q325.3592799116936 477.0441014794585 329.0666161552614 475.74947612456174Q332.7739523988291 474.4842740731855 334.0391544502054 470.68866791905657Q335.3337798051021 466.86363846140733 335.3337798051021 459.2430028496292L335.3337798051021 459.2430028496292L335.3337798051021 354.1723859783559Q335.3337798051021 346.3163639384148 334.0391544502054 342.609027694847Q332.7739523988291 338.90169145127925 329.0666161552614 337.51879618582143Q325.3592799116936 336.165324223884 318.1505705492008 335.92993779572095L318.1505705492008 335.92993779572095L318.1505705492008 331.69298208878644Q322.6229126842984 331.92836851694943 329.8021987432708 332.2226015521532Q337.0109081057637 332.54625789087737 344.0136543436139 332.34029476623476L344.0136543436139 332.34029476623476Q351.42832683074937 332.1343316415921 360.7555140467095 331.92836851694943Q370.0532779591492 331.69298208878644 375.99678527026583 331.69298208878644ZM370.7005906365976 335.5180115464357L370.7005906365976 335.5180115464357Q360.96147717135216 335.5180115464357 357.9897235157939 339.1076545759219Q355.0179698602356 342.7267209089285 355.0179698602356 353.73103642555026L355.0179698602356 353.73103642555026L355.0179698602356 459.6549290989145Q355.0179698602356 470.68866791905657 358.1074167298754 474.27831094854287Q361.1674402959948 477.86795397802905 370.9065537612403 477.86795397802905L370.9065537612403 477.86795397802905Q394.00384702473775 477.86795397802905 406.71471414554145 469.5117357782415Q419.42558126634515 461.1555175784538 424.5158127753707 445.0315472492862Q429.60604428439626 428.93700022363885 429.60604428439626 405.83970696014137L429.60604428439626 405.83970696014137Q429.60604428439626 382.12452432271596 423.98619331200393 366.55959676043545Q418.3663423396115 350.994669198155 405.5377820047263 343.25634037229537Q392.73864497336143 335.5180115464357 370.7005906365976 335.5180115464357Z " fill="#F4EF" transform="matrix(0.57391014066589,0,0,0.57391014066589,0,66.59475518838507)"/><path d="M716.4146490404742 331.6929739832488L716.4146490404742 331.6929739832488L716.4146490404742 458.5638342717942Q716.4146490404742 467.0218916243639 719.5211577594735 471.06818449364874Q722.6015613631871 475.1144773629336 730.6941471017569 475.1144773629336L730.6941471017569 475.1144773629336L730.6941471017569 479.0563497710757Q724.8727063930438 478.4820372347901 719.0512656843307 478.4820372347901L719.0512656843307 478.4820372347901Q713.5952965896175 478.4820372347901 708.6092195700471 479.0563497710757Q703.6231425504767 479.63066230736126 699.4985343353347 481.1186538786467L699.4985343353347 481.1186538786467L699.4985343353347 354.24779359010125Q699.4985343353347 345.7897362375316 696.4964460774781 341.7434433682467Q693.468252704336 337.72325561424753 685.2190362740519 337.72325561424753L685.2190362740519 337.72325561424753L685.2190362740519 333.7552780908198Q691.2232127897651 334.3295906271054 696.8619176914781 334.3295906271054L696.8619176914781 334.3295906271054Q702.3178867861913 334.3295906271054 707.3039638057617 333.6769627449627Q712.2639357100463 333.02433486281996 716.4146490404742 331.6929739832488ZM676.9437147284823 379.6219656478104L676.9437147284823 379.6219656478104Q685.2190362740519 379.6219656478104 692.4501532081933 383.56383805595243Q699.6812701423347 387.5318155793802 702.1351509791913 397.11239288923537L702.1351509791913 397.11239288923537L699.6812701423347 398.9919611898064Q697.044653498478 391.0821112582366 691.5103690579078 387.5318155793802Q685.9499795020517 383.9554147852381 678.4317062997676 383.9554147852381L678.4317062997676 383.9554147852381Q667.363137418627 383.9554147852381 659.9231795622 395.4155603956643Q652.5093268210587 406.87570600609047 652.6920626280587 430.7618864925142L652.6920626280587 430.7618864925142Q652.6920626280587 445.98116870408245 655.615835540058 456.0316380890804Q658.5135033367717 466.0821074740783 664.2566286996276 471.06818449364874Q669.973648947198 476.05426151321916 678.2489704927676 476.05426151321916L678.2489704927676 476.05426151321916Q686.1588204243375 476.05426151321916 692.5284685540505 469.29303665422054Q698.9242217990491 462.5057066799362 700.2555826786203 449.34872857593894L700.2555826786203 449.34872857593894L702.5006225931912 451.98534521979553Q700.9865259066202 466.2648432810783 693.3899373584788 473.9919574056481Q685.7672436950518 481.69296641493224 672.7930013980545 481.69296641493224L672.7930013980545 481.69296641493224Q661.1501199806282 481.69296641493224 652.4049063599158 476.05426151321916Q643.6596927392034 470.415556611506 639.0651924489185 459.1381468080798Q634.4706921586337 447.8607370046535 634.4706921586337 430.7618864925142L634.4706921586337 430.7618864925142Q634.4706921586337 413.6369308650891 640.370448213204 402.28120571580575Q646.2963093830599 390.8993754512366 655.981307154058 385.2606705495235Q665.666304925056 379.6219656478104 676.9437147284823 379.6219656478104ZM786.1414119686026 379.6219656478104L786.1414119686026 379.6219656478104Q798.1758701153144 379.6219656478104 807.7564474251697 384.8951989355236Q817.3370247350248 390.1423271079511 823.0801500978807 401.41973691137736Q828.797170345451 412.6971467148036 828.797170345451 430.7618864925142L828.797170345451 430.7618864925142Q828.797170345451 448.800521154939 823.0801500978807 459.9735104972225Q817.3370247350248 471.17260495479155 807.7564474251697 476.41973312721905Q798.1758701153144 481.69296641493224 786.1414119686026 481.69296641493224L786.1414119686026 481.69296641493224Q774.2896896288908 481.69296641493224 764.6307969731785 476.41973312721905Q754.9457992021805 471.17260495479155 749.2026738393245 459.9735104972225Q743.4856535917543 448.800521154939 743.4856535917543 430.7618864925142L743.4856535917543 430.7618864925142Q743.4856535917543 412.6971467148036 749.2026738393245 401.41973691137736Q754.9457992021805 390.1423271079511 764.6307969731785 384.8951989355236Q774.2896896288908 379.6219656478104 786.1414119686026 379.6219656478104ZM786.1414119686026 383.38110224895246L786.1414119686026 383.38110224895246Q775.438314701462 383.38110224895246 768.5726693813206 394.47577624537877Q761.707024061179 405.570450241805 761.707024061179 430.7618864925142L761.707024061179 430.7618864925142Q761.707024061179 455.9272176279376 768.5726693813206 466.9435762785067Q775.438314701462 477.9338298137902 786.1414119686026 477.9338298137902L786.1414119686026 477.9338298137902Q796.8445092357433 477.9338298137902 803.7101545558847 466.9435762785067Q810.5757998760262 455.9272176279376 810.5757998760262 430.7618864925142L810.5757998760262 430.7618864925142Q810.5757998760262 405.570450241805 803.7101545558847 394.47577624537877Q796.8445092357433 383.38110224895246 786.1414119686026 383.38110224895246ZM889.5176685000099 332.0845507125344L889.5176685000099 332.0845507125344Q894.7909017877232 332.0845507125344 898.8110895417224 333.4942269379627Q902.8573824110072 334.903903163391 905.8594706688638 337.148943077962L905.8594706688638 337.148943077962Q908.6788231197204 339.3939829925329 910.1929198062915 342.42217636567517Q911.7070164928625 345.42426462353166 911.7070164928625 348.79182449538814L911.7070164928625 348.79182449538814Q911.7070164928625 353.1252736328158 908.887664042006 355.9446260836724Q906.0683115911495 358.7639785345289 901.7348624537218 358.7639785345289L901.7348624537218 358.7639785345289Q897.6102542385797 358.7639785345289 894.5037455195803 356.0490465448152Q891.397236800581 353.30800943981575 891.397236800581 348.60908868838817L891.397236800581 348.60908868838817Q891.397236800581 344.6672162802461 893.5639613692948 342.2133354433895Q895.7306859380087 339.7855597218185 899.2809816168651 339.028511378533L899.2809816168651 339.028511378533Q898.7327741958652 337.33167888496195 896.3833138201514 336.1047384665336Q894.0338534444377 334.903903163391 890.0919810362956 334.903903163391L890.0919810362956 334.903903163391Q885.7585318988679 334.903903163391 882.6520231798686 336.78347146396203Q879.5455144608692 338.66303976453304 877.8747870825838 341.84786382938955L877.8747870825838 341.84786382938955Q875.6036420527271 345.7897362375316 875.0554346317273 353.5951657079586Q874.4811220954416 361.4005951783856 874.4811220954416 377.55966154023935L874.4811220954416 377.55966154023935L874.4811220954416 382.44131809866695L894.5820608654375 382.44131809866695L894.5820608654375 386.20045469980903L874.4811220954416 386.20045469980903L874.4811220954416 459.68635422907965Q874.4811220954416 468.9014599249349 879.832670729012 472.0079686439343Q885.1842193625823 475.1144773629336 894.3993250584376 475.1144773629336L894.3993250584376 475.1144773629336L894.3993250584376 479.0563497710757Q890.0919810362956 478.87361396407573 882.1821311047257 478.58645769593295Q874.2983862884416 478.2993014277901 865.4487522065864 478.2993014277901L865.4487522065864 478.2993014277901Q859.0791040768734 478.2993014277901 852.7616661777317 478.58645769593295Q846.470333393876 478.87361396407573 843.2855093290195 479.0563497710757L843.2855093290195 479.0563497710757L843.2855093290195 475.1144773629336Q850.9865183383037 475.1144773629336 854.2757628643029 472.2951249120771Q857.5650073903023 469.4757724612205 857.5650073903023 461.5659225296507L857.5650073903023 461.5659225296507L857.5650073903023 386.20045469980903L842.5284609857339 386.20045469980903L842.5284609857339 382.44131809866695L857.5650073903023 382.44131809866695Q857.5650073903023 371.34664410224065 858.5047915405878 363.8283708999565Q859.4445756908733 356.3100976976723 861.5068797984443 350.958549064102Q863.5691839060153 345.6070004305316 867.1455847001574 341.4823922153896L867.1455847001574 341.4823922153896Q870.9047213012996 337.148943077962 876.7261620100126 334.6167468952482Q882.5737078340114 332.0845507125344 889.5176685000099 332.0845507125344ZM932.1734268768583 480.36160553536115L932.1734268768583 480.36160553536115Q924.4724178675742 480.36160553536115 918.8337129658612 477.4639377386475Q913.1950080641479 474.54016482664804 910.2973402674343 469.29303665422054Q907.373567355435 464.01980336650735 907.373567355435 457.07584270050876L907.373567355435 457.07584270050876Q907.373567355435 448.800521154939 911.2371244177198 443.5272878672258Q915.074576364719 438.28015969479833 921.1048579957178 435.06923051465617Q927.1090345114309 431.88440644979966 933.7919440245723 429.7176818810858Q940.448748422428 427.55095731237196 946.4790300534269 425.5930736659438Q952.4832065691398 423.6090849042299 956.3467636314249 420.9724682603733Q960.1842155784241 418.3358516165167 960.1842155784241 414.02850759437473L960.1842155784241 414.02850759437473L960.1842155784241 402.35952106166286Q960.1842155784241 394.47577624537877 957.8347552027103 390.35116803023675Q955.4852948269964 386.20045469980903 951.5434224188543 384.7907784743808Q947.6015500107123 383.38110224895246 942.7198934522849 383.38110224895246L942.7198934522849 383.38110224895246Q938.0209727008571 383.38110224895246 932.6433189520012 384.7124631285236Q927.2917703184307 386.01771889280906 924.1069462535743 390.1423271079511L924.1069462535743 390.1423271079511Q927.6833470477164 390.8993754512366 930.2938585762873 393.90146370909315Q932.930475220144 396.9296570822354 932.930475220144 401.62857783366303L932.930475220144 401.62857783366303Q932.930475220144 406.3274985850906 929.9283869622874 409.04243057480437Q926.9262987044308 411.7573625645181 922.2273779530033 411.7573625645181L922.2273779530033 411.7573625645181Q916.7714088582901 411.7573625645181 914.2392126755763 408.2853822315188Q911.7070164928625 404.8134018985195 911.7070164928625 400.4799527610918L911.7070164928625 400.4799527610918Q911.7070164928625 395.59829620266424 914.1347922144334 392.5962079448077Q916.5886730512901 389.59411968695116 920.3478096524323 386.95750304309456L920.3478096524323 386.95750304309456Q924.6551536745742 383.9554147852381 931.5207989947157 381.78869021652423Q938.386444314857 379.6219656478104 947.0272374744268 379.6219656478104L947.0272374744268 379.6219656478104Q954.7282464837109 379.6219656478104 960.1842155784241 381.4232186025243Q965.6401846731371 383.1983664419525 969.2165854672793 386.5920314290947L969.2165854672793 386.5920314290947Q974.0982420257069 391.0821112582366 975.612338712278 397.5822849643781Q977.1003302835634 404.05635355523395 977.1003302835634 413.0887234440892L977.1003302835634 413.0887234440892L977.1003302835634 465.3250591307928Q977.1003302835634 470.0239798822204 978.5100065089916 472.1123891050771Q979.91968273442 474.1746932126481 982.9217709922765 474.1746932126481L982.9217709922765 474.1746932126481Q985.0101802151332 474.1746932126481 986.8897485157042 473.2349090623626Q988.7693168162752 472.2951249120771 991.3798283448461 470.23282080450605L991.3798283448461 470.23282080450605L993.4682375677029 473.41764486936256Q989.5002600442751 476.41973312721905 985.9499643654187 478.403721888933Q982.3735635712767 480.36160553536115 976.3432819402778 480.36160553536115L976.3432819402778 480.36160553536115Q970.9134179608504 480.36160553536115 967.3370171667083 478.4820372347901Q963.7606163725661 476.602468934219 961.9854685331379 472.9477527942198Q960.1842155784241 469.29303665422054 960.1842155784241 463.6543317525074L960.1842155784241 463.6543317525074Q955.1198232129966 472.1123891050771 948.0714420858551 476.2369973202191Q941.0230609587137 480.36160553536115 932.1734268768583 480.36160553536115ZM938.9607568511426 472.84333233307694L938.9607568511426 472.84333233307694Q945.1476691738558 472.84333233307694 950.499217807426 469.29303665422054Q955.8768715562821 465.71663586007844 960.1842155784241 458.5638342717942L960.1842155784241 458.5638342717942L960.1842155784241 421.7295166036589Q957.9391756638531 424.91434066851536 953.6057265264253 427.0810652372292Q949.2983825042834 429.24778980594306 944.2078850235703 431.4145143746569Q939.1434926581426 433.58123894337075 934.5228872525722 436.4789067400844Q929.9283869622874 439.4026796520838 926.9262987044308 444.10160040351144Q923.9242104465743 448.800521154939 923.9242104465743 456.31879435722317L923.9242104465743 456.31879435722317Q923.9242104465743 463.8370675595074 927.9443982005735 468.353252503935Q931.9906910698585 472.84333233307694 938.9607568511426 472.84333233307694ZM1061.1326963882605 379.6219656478104L1061.1326963882605 379.6219656478104Q1067.7111854402592 379.6219656478104 1072.5928419986867 381.50153394838145Q1077.4744985571142 383.38110224895246 1080.6593226219707 386.7747672360946L1080.6593226219707 386.7747672360946Q1084.235723416113 390.5339038372367 1085.567084295684 396.53808035294975Q1086.8723400599695 402.56836198394853 1086.8723400599695 411.39189095051813L1086.8723400599695 411.39189095051813L1086.8723400599695 461.5659225296507Q1086.8723400599695 469.4757724612205 1090.1615845859687 472.2951249120771Q1093.4508291119682 475.1144773629336 1101.1518381212522 475.1144773629336L1101.1518381212522 475.1144773629336L1101.1518381212522 479.0563497710757Q1097.9670140563958 478.87361396407573 1091.3885250043973 478.58645769593295Q1084.8100359523985 478.2993014277901 1078.5970185143997 478.2993014277901L1078.5970185143997 478.2993014277901Q1072.4101061916867 478.2993014277901 1066.4842450218307 478.58645769593295Q1060.558383851975 478.87361396407573 1057.5562955941184 479.0563497710757L1057.5562955941184 479.0563497710757L1057.5562955941184 475.1144773629336Q1064.317520453117 475.1144773629336 1067.1368729039734 472.2951249120771Q1069.9562253548302 469.4757724612205 1069.9562253548302 461.5659225296507L1069.9562253548302 461.5659225296507L1069.9562253548302 407.2672827353761Q1069.9562253548302 401.41973691137736 1069.1991770115446 396.53808035294975Q1068.4421286682589 391.6564237945222 1065.4400404104026 388.65433553666566Q1062.437952152546 385.6522472788091 1055.6767272935472 385.6522472788091L1055.6767272935472 385.6522472788091Q1048.341189898263 385.6522472788091 1042.598064535407 390.1423271079511Q1036.8810442878369 394.65851205237874 1033.5917997618376 402.46394152280567Q1030.302555235838 410.26937099323266 1030.302555235838 419.84994830308784L1030.302555235838 419.84994830308784L1030.302555235838 461.5659225296507Q1030.302555235838 469.4757724612205 1033.1219076866948 472.2951249120771Q1035.9412601375514 475.1144773629336 1042.70248499655 475.1144773629336L1042.70248499655 475.1144773629336L1042.70248499655 479.0563497710757Q1039.7003967386934 478.87361396407573 1033.7745355688376 478.58645769593295Q1027.8486743989815 478.2993014277901 1021.6617620762686 478.2993014277901L1021.6617620762686 478.2993014277901Q1015.4487446382698 478.2993014277901 1008.8702555862712 478.58645769593295Q1002.2917665342726 478.87361396407573 999.106942469416 479.0563497710757L999.106942469416 479.0563497710757L999.106942469416 475.1144773629336Q1006.8079514787001 475.1144773629336 1010.0971960046995 472.2951249120771Q1013.3864405306988 469.4757724612205 1013.3864405306988 461.5659225296507L1013.3864405306988 461.5659225296507L1013.3864405306988 402.7510977909485Q1013.3864405306988 394.2930404383788 1010.3843522728423 390.2467475690939Q1007.3561588997002 386.20045469980903 999.106942469416 386.20045469980903L999.106942469416 386.20045469980903L999.106942469416 382.258582291667Q1005.111118985129 382.8328948279526 1010.7498238868423 382.8328948279526L1010.7498238868423 382.8328948279526Q1016.2057929815554 382.8328948279526 1021.1918700011258 382.1541618305241Q1026.1518419054105 381.50153394838145 1030.302555235838 380.196278184096L1030.302555235838 380.196278184096L1030.302555235838 402.35952106166286Q1035.1842117942658 390.1423271079511 1043.6422691468354 384.8951989355236Q1052.1003264994051 379.6219656478104 1061.1326963882605 379.6219656478104ZM1117.7024812123916 379.6219656478104L1117.7024812123916 379.6219656478104Q1124.2809702643904 379.6219656478104 1129.1626268228179 381.50153394838145Q1134.0442833812456 383.38110224895246 1137.2552125613877 386.7747672360946L1137.2552125613877 386.7747672360946Q1140.805508240244 390.5339038372367 1142.1368691198154 396.53808035294975Q1143.4421248841008 402.56836198394853 1143.4421248841008 411.39189095051813L1143.4421248841008 411.39189095051813L1143.4421248841008 461.5659225296507Q1143.4421248841008 469.4757724612205 1146.7313694101 472.2951249120771Q1150.0206139360994 475.1144773629336 1157.7216229453834 475.1144773629336L1157.7216229453834 475.1144773629336L1157.7216229453834 479.0563497710757Q1154.536798880527 478.87361396407573 1147.9583098285284 478.58645769593295Q1141.3798207765296 478.2993014277901 1135.1668033385308 478.2993014277901L1135.1668033385308 478.2993014277901Q1128.9798910158179 478.2993014277901 1123.054029845962 478.58645769593295Q1117.128168676106 478.87361396407573 1114.1260804182496 479.0563497710757L1114.1260804182496 479.0563497710757L1114.1260804182496 475.1144773629336Q1120.887305277248 475.1144773629336 1123.7066577281048 472.2951249120771Q1126.5260101789613 469.4757724612205 1126.5260101789613 461.5659225296507L1126.5260101789613 461.5659225296507L1126.5260101789613 407.2672827353761Q1126.5260101789613 401.41973691137736 1125.7689618356758 396.53808035294975Q1125.038018607676 391.6564237945222 1122.0098252345338 388.65433553666566Q1119.007736976677 385.6522472788091 1112.2465121176785 385.6522472788091L1112.2465121176785 385.6522472788091Q1104.9109747223943 385.6522472788091 1099.193954474824 390.1423271079511Q1093.4508291119682 394.65851205237874 1090.1615845859687 402.35952106166286Q1086.8723400599695 410.0866351862327 1086.8723400599695 419.66721249608787L1086.8723400599695 419.66721249608787L1086.2980275236837 402.1767852546629Q1091.3885250043973 389.2025429576655 1100.0293181639668 384.42530686038083Q1108.6701113235365 379.6219656478104 1117.7024812123916 379.6219656478104ZM1187.4292441405203 335.2693747773909L1187.4292441405203 335.2693747773909Q1192.3109006989478 335.2693747773909 1195.88730149309 338.845775571533Q1199.463702287232 342.42217636567517 1199.463702287232 347.3038329241027L1199.463702287232 347.3038329241027Q1199.463702287232 352.1854894825303 1195.88730149309 355.76189027667243Q1192.3109006989478 359.33829107081453 1187.4292441405203 359.33829107081453L1187.4292441405203 359.33829107081453Q1182.5475875820925 359.33829107081453 1178.9711867879505 355.76189027667243Q1175.3947859938085 352.1854894825303 1175.3947859938085 347.3038329241027L1175.3947859938085 347.3038329241027Q1175.3947859938085 342.42217636567517 1178.9711867879505 338.845775571533Q1182.5475875820925 335.2693747773909 1187.4292441405203 335.2693747773909ZM1197.1925572573755 380.196278184096L1197.1925572573755 380.196278184096L1197.1925572573755 461.5659225296507Q1197.1925572573755 469.4757724612205 1200.4818017833745 472.2951249120771Q1203.771046309374 475.1144773629336 1211.498160433944 475.1144773629336L1211.498160433944 475.1144773629336L1211.498160433944 479.0563497710757Q1208.2872312538016 478.87361396407573 1201.8131626629458 478.58645769593295Q1195.3129889568045 478.2993014277901 1188.7344999048057 478.2993014277901L1188.7344999048057 478.2993014277901Q1182.3648517750926 478.2993014277901 1175.786362723094 478.58645769593295Q1169.2078736710955 478.87361396407573 1165.9969444909532 479.0563497710757L1165.9969444909532 479.0563497710757L1165.9969444909532 475.1144773629336Q1173.6979535002374 475.1144773629336 1176.9871980262367 472.2951249120771Q1180.276442552236 469.4757724612205 1180.276442552236 461.5659225296507L1180.276442552236 461.5659225296507L1180.276442552236 402.7510977909485Q1180.276442552236 394.2930404383788 1177.2743542943795 390.2467475690939Q1174.272266036523 386.20045469980903 1165.9969444909532 386.20045469980903L1165.9969444909532 386.20045469980903L1165.9969444909532 382.258582291667Q1172.027226121952 382.8328948279526 1177.665931023665 382.8328948279526L1177.665931023665 382.8328948279526Q1183.0957950030925 382.8328948279526 1188.081872022663 382.1541618305241Q1193.0679490422333 381.50153394838145 1197.1925572573755 380.196278184096ZM1284.2270116199288 379.6219656478104L1284.2270116199288 379.6219656478104Q1291.3798132082131 379.6219656478104 1296.1570493054978 381.50153394838145Q1300.9603905180684 383.38110224895246 1304.1452145829248 386.7747672360946L1304.1452145829248 386.7747672360946Q1307.7216153770669 390.5339038372367 1309.235712063638 396.17260873894986Q1310.7237036349234 401.81131364066295 1310.7237036349234 411.39189095051813L1310.7237036349234 411.39189095051813L1310.7237036349234 461.5659225296507Q1310.7237036349234 469.4757724612205 1314.0129481609229 472.2951249120771Q1317.3021926869221 475.1144773629336 1325.0032016962064 475.1144773629336L1325.0032016962064 475.1144773629336L1325.0032016962064 479.0563497710757Q1321.81837763135 478.87361396407573 1315.2398885793511 478.58645769593295Q1308.6613995273524 478.2993014277901 1302.4483820893538 478.2993014277901L1302.4483820893538 478.2993014277901Q1296.2614697666409 478.2993014277901 1290.3356085967848 478.58645769593295Q1284.4097474269288 478.87361396407573 1281.4076591690723 479.0563497710757L1281.4076591690723 479.0563497710757L1281.4076591690723 475.1144773629336Q1288.168884028071 475.1144773629336 1290.9882364789273 472.2951249120771Q1293.807588929784 469.4757724612205 1293.807588929784 461.5659225296507L1293.807588929784 461.5659225296507L1293.807588929784 407.2672827353761Q1293.807588929784 401.41973691137736 1292.8678047794986 396.53808035294975Q1291.928020629213 391.6564237945222 1288.6387761032138 388.65433553666566Q1285.3495315772143 385.6522472788091 1278.5883067182158 385.6522472788091L1278.5883067182158 385.6522472788091Q1270.7045619019318 385.6522472788091 1264.7787007320758 390.1423271079511Q1258.8528395622197 394.65851205237874 1255.5635950362205 402.46394152280567Q1252.2743505102212 410.26937099323266 1252.2743505102212 419.84994830308784L1252.2743505102212 419.84994830308784L1252.2743505102212 461.5659225296507Q1252.2743505102212 469.4757724612205 1255.0937029610777 472.2951249120771Q1257.9130554119342 475.1144773629336 1264.674280270933 475.1144773629336L1264.674280270933 475.1144773629336L1264.674280270933 479.0563497710757Q1261.6721920130765 478.87361396407573 1255.7463308432204 478.58645769593295Q1249.8204696733646 478.2993014277901 1243.6335573506515 478.2993014277901L1243.6335573506515 478.2993014277901Q1237.4205399126529 478.2993014277901 1230.8420508606541 478.58645769593295Q1224.2635618086556 478.87361396407573 1221.0787377437991 479.0563497710757L1221.0787377437991 479.0563497710757L1221.0787377437991 475.1144773629336Q1228.7797467530831 475.1144773629336 1232.0689912790824 472.2951249120771Q1235.3582358050817 469.4757724612205 1235.3582358050817 461.5659225296507L1235.3582358050817 461.5659225296507L1235.3582358050817 402.7510977909485Q1235.3582358050817 394.2930404383788 1232.3561475472252 390.2467475690939Q1229.3540592893687 386.20045469980903 1221.0787377437991 386.20045469980903L1221.0787377437991 386.20045469980903L1221.0787377437991 382.258582291667Q1227.082914259512 382.8328948279526 1232.7216191612251 382.8328948279526L1232.7216191612251 382.8328948279526Q1238.1775882559384 382.8328948279526 1243.1636652755087 382.1541618305241Q1248.1497422950792 381.50153394838145 1252.2743505102212 380.196278184096L1252.2743505102212 380.196278184096L1252.2743505102212 402.35952106166286Q1257.1560070686487 389.59411968695116 1265.9012206893613 384.6080426673808Q1274.6464343100738 379.6219656478104 1284.2270116199288 379.6219656478104ZM1362.8034086299126 331.6929739832488L1362.8034086299126 331.6929739832488L1362.8034086299126 461.5659225296507Q1362.8034086299126 469.4757724612205 1365.6227610807696 472.2951249120771Q1368.4421135316259 475.1144773629336 1375.2033383906246 475.1144773629336L1375.2033383906246 475.1144773629336L1375.2033383906246 479.0563497710757Q1372.201250132768 478.87361396407573 1366.275388962912 478.58645769593295Q1360.349527793056 478.2993014277901 1354.345351277343 478.2993014277901L1354.345351277343 478.2993014277901Q1347.9495980323445 478.2993014277901 1341.3711089803458 478.58645769593295Q1334.792619928347 478.87361396407573 1331.581690748205 479.0563497710757L1331.581690748205 479.0563497710757L1331.581690748205 475.1144773629336Q1339.3088048727745 475.1144773629336 1342.598049398774 472.2951249120771Q1345.8872939247735 469.4757724612205 1345.8872939247735 461.5659225296507L1345.8872939247735 461.5659225296507L1345.8872939247735 354.24779359010125Q1345.8872939247735 345.7897362375316 1342.8591005516312 341.7434433682467Q1339.8570122937747 337.72325561424753 1331.581690748205 337.72325561424753L1331.581690748205 337.72325561424753L1331.581690748205 333.7552780908198Q1337.6119723792037 334.3295906271054 1343.250677280917 334.3295906271054L1343.250677280917 334.3295906271054Q1348.70664637563 334.3295906271054 1353.6666182799145 333.6769627449627Q1358.652695299485 333.02433486281996 1362.8034086299126 331.6929739832488ZM1422.5580175189007 382.258582291667L1422.5580175189007 382.258582291667L1422.5580175189007 386.01771889280906Q1417.859096767473 386.383190506809 1413.7344885523312 388.5499150755228Q1409.5837752219031 390.71663964423664 1405.6419028137611 394.8412478593787L1405.6419028137611 394.8412478593787L1379.1452107987666 422.6693007539444L1381.7818274426231 417.39606746623116L1416.7365768101874 465.3250591307928Q1419.9214008750437 469.65850826822043 1422.8451737870432 472.1123891050771Q1425.7689466990428 474.54016482664804 1429.8935549141847 475.1144773629336L1429.8935549141847 475.1144773629336L1429.8935549141847 479.0563497710757Q1427.8312508066138 478.87361396407573 1423.4194863233288 478.58645769593295Q1418.9816167247586 478.2993014277901 1414.6742727026162 478.2993014277901L1414.6742727026162 478.2993014277901Q1408.8528319939032 478.2993014277901 1402.8225503629046 478.58645769593295Q1396.8183738471917 478.87361396407573 1393.816285589335 479.0563497710757L1393.816285589335 479.0563497710757L1393.816285589335 475.1144773629336Q1397.5754221904772 475.1144773629336 1399.0634137617626 473.2349090623626Q1400.5775104483337 471.3553407617916 1398.5152063407627 468.7187241179349L1398.5152063407627 468.7187241179349L1376.9001708841956 437.13153462222715Q1373.3237700900536 432.0671422567996 1370.399997178054 430.5530455702285Q1367.5023293813404 429.0650539989431 1362.0463602866273 428.8823181919431L1362.0463602866273 428.8823181919431L1362.0463602866273 425.12318159080104Q1368.0505368023403 424.36613324751545 1371.8096734034825 422.56488029280155Q1375.5688100046245 420.78973245337335 1378.9624749917666 417.21333165923124L1378.9624749917666 417.21333165923124L1392.8765014390497 402.7510977909485Q1398.8806779547624 396.53808035294975 1398.8806779547624 392.88336421295054Q1398.8806779547624 389.2025429576655 1395.0171208924776 387.6101309252373Q1391.1796689454782 386.01771889280906 1384.9666515074796 386.01771889280906L1384.9666515074796 386.01771889280906L1384.9666515074796 382.258582291667Q1389.848308065907 382.44131809866695 1395.956905042763 382.72847436680973Q1402.065502019619 383.0156306349525 1406.2162153500467 383.0156306349525L1406.2162153500467 383.0156306349525Q1409.4010394149032 383.0156306349525 1412.4031276727596 382.9112101738097Q1415.431321045902 382.8328948279526 1418.041832574473 382.6240539056669Q1420.6784492183294 382.44131809866695 1422.5580175189007 382.258582291667ZM1463.3603127104636 480.36160553536115L1463.3603127104636 480.36160553536115Q1455.6331985858938 480.36160553536115 1449.9944936841807 477.4639377386475Q1444.3557887824672 474.54016482664804 1441.4581209857538 469.29303665422054Q1438.5343480737542 464.01980336650735 1438.5343480737542 457.07584270050876L1438.5343480737542 457.07584270050876Q1438.5343480737542 448.800521154939 1442.3979051360393 443.5272878672258Q1446.2353570830387 438.28015969479833 1452.2656387140373 435.06923051465617Q1458.2698152297503 431.88440644979966 1464.9527247428919 429.7176818810858Q1471.6095291407473 427.55095731237196 1477.6398107717464 425.5930736659438Q1483.6439872874594 423.6090849042299 1487.5075443497444 420.9724682603733Q1491.3449962967434 418.3358516165167 1491.3449962967434 414.02850759437473L1491.3449962967434 414.02850759437473L1491.3449962967434 402.35952106166286Q1491.3449962967434 394.47577624537877 1488.9955359210298 390.35116803023675Q1486.6460755453159 386.20045469980903 1482.7042031371739 384.7907784743808Q1478.7623307290319 383.38110224895246 1473.8806741706042 383.38110224895246L1473.8806741706042 383.38110224895246Q1469.1817534191766 383.38110224895246 1463.8302047856064 384.7124631285236Q1458.4525510367503 386.01771889280906 1455.2677269718938 390.1423271079511L1455.2677269718938 390.1423271079511Q1458.8441277660359 390.8993754512366 1461.4807444098926 393.90146370909315Q1464.0912559384633 396.9296570822354 1464.0912559384633 401.62857783366303L1464.0912559384633 401.62857783366303Q1464.0912559384633 406.3274985850906 1461.0891676806068 409.04243057480437Q1458.0870794227503 411.7573625645181 1453.3881586713228 411.7573625645181L1453.3881586713228 411.7573625645181Q1447.9321895766095 411.7573625645181 1445.3999933938958 408.2853822315188Q1442.8677972111818 404.8134018985195 1442.8677972111818 400.4799527610918L1442.8677972111818 400.4799527610918Q1442.8677972111818 395.59829620266424 1445.2955729327532 392.5962079448077Q1447.7494537696098 389.59411968695116 1451.5085903707518 386.95750304309456L1451.5085903707518 386.95750304309456Q1455.8420395081794 383.9554147852381 1462.6815797130353 381.78869021652423Q1469.5472250331768 379.6219656478104 1478.1880181927463 379.6219656478104L1478.1880181927463 379.6219656478104Q1485.915132317316 379.6219656478104 1491.3449962967434 381.4232186025243Q1496.8009653914569 383.1983664419525 1500.377366185599 386.5920314290947L1500.377366185599 386.5920314290947Q1505.2590227440264 391.0821112582366 1506.7731194305975 397.5822849643781Q1508.261111001883 404.05635355523395 1508.261111001883 413.0887234440892L1508.261111001883 413.0887234440892L1508.261111001883 465.3250591307928Q1508.261111001883 470.0239798822204 1509.6707872273114 472.1123891050771Q1511.0804634527394 474.1746932126481 1514.1086568258818 474.1746932126481L1514.1086568258818 474.1746932126481Q1516.1709609334525 474.1746932126481 1518.0505292340235 473.2349090623626Q1519.9300975345948 472.2951249120771 1522.5667141784515 470.23282080450605L1522.5667141784515 470.23282080450605L1524.6290182860223 473.41764486936256Q1520.6871458778803 476.41973312721905 1517.110745083738 478.403721888933Q1513.534344289596 480.36160553536115 1507.530167773883 480.36160553536115L1507.530167773883 480.36160553536115Q1502.07419867917 480.36160553536115 1498.497797885028 478.4820372347901Q1494.9213970908856 476.602468934219 1493.1462492514574 472.9477527942198Q1491.3449962967434 469.29303665422054 1491.3449962967434 463.6543317525074L1491.3449962967434 463.6543317525074Q1486.280603931316 472.1123891050771 1479.2322228041744 476.2369973202191Q1472.1838416770333 480.36160553536115 1463.3603127104636 480.36160553536115ZM1470.1215375694621 472.84333233307694L1470.1215375694621 472.84333233307694Q1476.3084498921753 472.84333233307694 1481.6861036410312 469.29303665422054Q1487.0376522746014 465.71663586007844 1491.3449962967434 458.5638342717942L1491.3449962967434 458.5638342717942L1491.3449962967434 421.7295166036589Q1489.0999563821724 424.91434066851536 1484.7665072447448 427.0810652372292Q1480.459163222603 429.24778980594306 1475.3686657418898 431.4145143746569Q1470.3042733764623 433.58123894337075 1465.7097730861774 436.4789067400844Q1461.0891676806068 439.4026796520838 1458.0870794227503 444.10160040351144Q1455.0849911648938 448.800521154939 1455.0849911648938 456.31879435722317L1455.0849911648938 456.31879435722317Q1455.0849911648938 463.8370675595074 1459.1312840341789 468.353252503935Q1463.1514717881778 472.84333233307694 1470.1215375694621 472.84333233307694Z " fill="#7D" transform="matrix(0.57391014066589,0,0,0.57391014066589,0,66.59475518838507)"/></g></svg>